<svg width="722" height="492" viewBox="0 0 722 492" fill="none" xmlns="http://www.w3.org/2000/svg">
<g filter="url(#filter0_d_0_468)">
<rect x="40" y="20" width="642" height="412" rx="15" fill="url(#paint0_linear_0_468)"/>
</g>
<mask id="mask0_0_468" style="mask-type:luminance" maskUnits="userSpaceOnUse" x="40" y="20" width="642" height="412">
<rect x="40" y="20" width="642" height="412" rx="15" fill="white"/>
</mask>
<g mask="url(#mask0_0_468)">
<path d="M40 143.609C40 141.952 41.3431 140.609 43 140.609H679C680.657 140.609 682 141.952 682 143.609V429C682 430.657 680.657 432 679 432H43C41.3431 432 40 430.657 40 429V143.609Z" fill="#2D2E40"/>
<rect x="130.523" y="66.0335" width="135.785" height="132.346" rx="3" fill="white"/>
<ellipse cx="198.416" cy="132.782" rx="39.3061" ry="37.9777" fill="#2D2E40"/>
<rect x="288.939" y="66.0335" width="302.538" height="314.179" rx="3" fill="white"/>
</g>
<path d="M249 294.023C249 294.023 319.687 187.838 353.557 179.264C387.427 170.689 377.322 259.483 426.092 249.191C474.862 238.9 480.808 148.869 517.695 144.627C554.582 140.385 574.097 222.73 590.21 230.317C606.323 237.904 630 197.506 630 197.506" stroke="url(#paint1_linear_0_468)" stroke-width="8" stroke-linecap="round"/>
<defs>
<filter id="filter0_d_0_468" x="0" y="0" width="722" height="492" filterUnits="userSpaceOnUse" color-interpolation-filters="sRGB">
<feFlood flood-opacity="0" result="BackgroundImageFix"/>
<feColorMatrix in="SourceAlpha" type="matrix" values="0 0 0 0 0 0 0 0 0 0 0 0 0 0 0 0 0 0 127 0" result="hardAlpha"/>
<feOffset dy="20"/>
<feGaussianBlur stdDeviation="20"/>
<feColorMatrix type="matrix" values="0 0 0 0 0.421822 0 0 0 0 0.554338 0 0 0 0 0.89371 0 0 0 0.243444 0"/>
<feBlend mode="normal" in2="BackgroundImageFix" result="effect1_dropShadow_0_468"/>
<feBlend mode="normal" in="SourceGraphic" in2="effect1_dropShadow_0_468" result="shape"/>
</filter>
<linearGradient id="paint0_linear_0_468" x1="-281" y1="226" x2="93.546" y2="809.637" gradientUnits="userSpaceOnUse">
<stop stop-color="#FF8F71"/>
<stop offset="1" stop-color="#FF3E55"/>
</linearGradient>
<linearGradient id="paint1_linear_0_468" x1="58.5" y1="219.246" x2="160.235" y2="478.422" gradientUnits="userSpaceOnUse">
<stop stop-color="#FF8F71"/>
<stop offset="1" stop-color="#FF3E55"/>
</linearGradient>
</defs>
</svg>
